{"title":"Byzantium 2012.1080p.BluRay.x264 . NVEE","uid":8957958,"size":2771317073,"categoryP":"video","categoryS":"hd___movies","magnet":"?xt=urn:btih:bb46e4748fc4ce661d6ec9ff394bbc6f2c175369&amp;dn=Byzantium+2012.1080p.BluRay.x264+.+NVEE&amp;tr=udp%3A%2F%2Ftracker.openbittorrent.com%3A80&amp;tr=udp%3A%2F%2Fopen.demonii.com%3A1337&amp;tr=udp%3A%2F%2Ftracker.coppersurfer.tk%3A6969&amp;tr=udp%3A%2F%2Fexodus.desync.com%3A6969","seeders":1,"leechers":0,"uploader":".NVEE","files":27,"time":1380040310,"description":"FULL_INFOs\n\n\n\n99.99% --- SYNCED GUARANTEED \n\n&quot;Totally scrutinized / analyzed to be a verified torrent.&quot;\n\n___________________________________________\n\n\nSource : BluRay ~ 1080p\n\nMy Media Player of Choice &quot;VLC Media Player via HDMI&quot;\n\nSpoken Language : English Only\n\nAudio : 6 ~ Channels Only\n\nOnly @\n\nDon't delete torrent link,... Please seed . NVEE\n\n_____________________________________\n\n\n\n\n &lt;a href=&quot;\nhttp://www.imdb.com/title/tt1531901/&quot; rel=&quot;nofollow&quot; target=&quot;_NEW&quot;&gt;\nhttp://www.imdb.com/title/tt1531901/&lt;/a&gt;\n\n\n\n\n\n\nSubs Info : MULTI_SUBS\n\n\n &lt;a href=&quot;\nhttp://www.subtitleseeker.com/1531901/Byzantium/Subtitles/&quot; rel=&quot;nofollow&quot; target=&quot;_NEW&quot;&gt;\nhttp://www.subtitleseeker.com/1531901/Byzantium/Subtitles/&lt;/a&gt;\n\n255 Subtitles In 30 Languages Use Link Provided \n &lt;a href=&quot;\nhttp://www.subtitleseeker.com/1531901/Byzantium/Subtitles/&quot; rel=&quot;nofollow&quot; target=&quot;_NEW&quot;&gt;\nhttp://www.subtitleseeker.com/1531901/Byzantium/Subtitles/&lt;/a&gt;\n\n255 Subtitles In 30 Languages Only @ SubtitleSeeker\n &lt;a href=&quot;\nhttp://www.subtitleseeker.com/1531901/Byzantium/Subtitles/&quot; rel=&quot;nofollow&quot; target=&quot;_NEW&quot;&gt;\nhttp://www.subtitleseeker.com/1531901/Byzantium/Subtitles/&lt;/a&gt;\n\nAll .srt subs can be turned On/Off\n\n\n\n &lt;a href=&quot;\nhttp://www.imdb.com/title/tt1531901/&quot; rel=&quot;nofollow&quot; target=&quot;_NEW&quot;&gt;\nhttp://www.imdb.com/title/tt1531901/&lt;/a&gt;\n\n\n\n\n---------------------------------------------------------------------------------\n\n\n\nGeneral\n\nComplete name : Byzantium 2012.1080p.BluRay.x264 . NVEE.mp4\nFormat : MPEG-4\nFormat profile : Base Media\nCodec ID : isom\nFile size : 2.58 GiB\nDuration : 1h 58mn\nOverall bit rate : 3 108 Kbps\nEncoded date : UTC 2013-09-22 11:16:09\nTagged date : UTC 2013-09-22 11:16:09\n\n\nVideo\n\nID : 1\nFormat : AVC\nFormat/Info : Advanced Video Codec\nFormat profile : &lt;a class=&quot;__cf_email__&quot; href=&quot;/cdn-cgi/l/email-protection&quot; data-cfemail=&quot;347c5d535c7478001a04&quot;&gt;[email&amp;#160;protected]&lt;/a&gt;&lt;script cf-hash='f9e31' type=&quot;text/javascript&quot;&gt;\n/* &lt;![CDATA[ */!function(){try{var t=&quot;currentScript&quot;in document?document.currentScript:function(){for(var t=document.getElementsByTagName(&quot;script&quot;),e=t.length;e--;)if(t[e].getAttribute(&quot;cf-hash&quot;))return t[e]}();if(t&amp;&amp;t.previousSibling){var e,r,n,i,c=t.previousSibling,a=c.getAttribute(&quot;data-cfemail&quot;);if(a){for(e=&quot;&quot;,r=parseInt(a.substr(0,2),16),n=2;a.length-n;n+=2)i=parseInt(a.substr(n,2),16)^r,e+=String.fromCharCode(i);e=document.createTextNode(e),c.parentNode.replaceChild(e,c)}}}catch(u){}}();/* ]]&gt; */&lt;/script&gt;\nFormat settings, CABAC : Yes\nFormat settings, ReFrames : 4 frames\nCodec ID : avc1\nCodec ID/Info : Advanced Video Coding\nDuration : 1h 58mn\nBit rate : 2 535 Kbps\nMaximum bit rate : 13.9 Mbps\nWidth : 1 920 pixels\nHeight : 816 pixels\nDisplay aspect ratio : 2.35:1\nFrame rate mode : Constant\nFrame rate : 23.976 fps\nColor space : YUV\nChroma subsampling : 4:2:0\nBit depth : 8 bits\nScan type : Progressive\nBits/(Pixel*Frame) : 0.067\nStream size : 2.10 GiB (81%)\nTitle : 1080p.BluRay.x264 .264#trackID=1:fps=&lt;a class=&quot;__cf_email__&quot; href=&quot;/cdn-cgi/l/email-protection&quot; data-cfemail=&quot;86b4b5a8bfb1b0c6c1d6c7c5b6a8b3a8b7abc2c3d0abf4e3f0b2b4beb5&quot;&gt;[email&amp;#160;protected]&lt;/a&gt;&lt;script cf-hash='f9e31' type=&quot;text/javascript&quot;&gt;\n/* &lt;![CDATA[ */!function(){try{var t=&quot;currentScript&quot;in document?document.currentScript:function(){for(var t=document.getElementsByTagName(&quot;script&quot;),e=t.length;e--;)if(t[e].getAttribute(&quot;cf-hash&quot;))return t[e]}();if(t&amp;&amp;t.previousSibling){var e,r,n,i,c=t.previousSibling,a=c.getAttribute(&quot;data-cfemail&quot;);if(a){for(e=&quot;&quot;,r=parseInt(a.substr(0,2),16),n=2;a.length-n;n+=2)i=parseInt(a.substr(n,2),16)^r,e+=String.fromCharCode(i);e=document.createTextNode(e),c.parentNode.replaceChild(e,c)}}}catch(u){}}();/* ]]&gt; */&lt;/script&gt;\nWriting library : x264 core 133 r2334 a3ac64b\nEncoded date : UTC 2013-09-22 11:16:09\nTagged date : UTC 2013-09-22 11:32:21\n\n\nAudio\n\nID : 2\nFormat : AC-3\nFormat/Info : Audio Coding 3\nMode extension : CM (complete main)\nFormat settings, Endianness : Big\nCodec ID : ac-3\nDuration : 1h 58mn\nBit rate mode : Constant\nBit rate : 576 Kbps\nChannel(s) : 6 channels\nChannel positions : Front: L C R, Side: L R, LFE\nSampling rate : 48.0 KHz\nBit depth : 16 bits\nCompression mode : Lossy\nStream size : 489 MiB (19%)\nTitle : 1080p.BluRay.x264 . NVEE - [0] English_core_audio.ac3#trackID=1:lang=&lt;a class=&quot;__cf_email__&quot; href=&quot;/cdn-cgi/l/email-protection&quot; data-cfemail=&quot;dbbeb59b9c8b9a98ebf5eef5eaf69f9e8df6a9beadefe9e3e8&quot;&gt;[email&amp;#160;protected]&lt;/a&gt;&lt;script cf-hash='f9e31' type=&quot;text/javascript&quot;&gt;\n/* &lt;![CDATA[ */!function(){try{var t=&quot;currentScript&quot;in document?document.currentScript:function(){for(var t=document.getElementsByTagName(&quot;script&quot;),e=t.length;e--;)if(t[e].getAttribute(&quot;cf-hash&quot;))return t[e]}();if(t&amp;&amp;t.previousSibling){var e,r,n,i,c=t.previousSibling,a=c.getAttribute(&quot;data-cfemail&quot;);if(a){for(e=&quot;&quot;,r=parseInt(a.substr(0,2),16),n=2;a.length-n;n+=2)i=parseInt(a.substr(n,2),16)^r,e+=String.fromCharCode(i);e=document.createTextNode(e),c.parentNode.replaceChild(e,c)}}}catch(u){}}();/* ]]&gt; */&lt;/script&gt;\nLanguage : English\nEncoded date : UTC 2013-09-22 11:30:42\nTagged date : UTC 2013-09-22 11:32:21\n\n\n\nSynopsis\n\nA vampire mother and daughter's dark two-hundred-year history threatens to catch up with them in a run-down hotel on the English coast. Their story begins during the Napoleonic Wars, when young Eleanor (Ronan) was abandoned as Clara (Arterton) was forced into prostitution. Two centuries later, contemplative Eleanor and extroverted Clara are on the run when they seek sanctuary in a dilapidated coastal resort. There, Clara sets her sights on a lonely soul named Noel (Daniel Mays) who has just inherited the Byzantium Hotel, a once-thriving business that has fallen into disrepair. Before long, the elder vampire has transformed the Byzantium into a makeshift brothel. Meanwhile, Eleanor falls for Frank (Caleb Landry Jones), a waiter who unwittingly draws out the natural storyteller in her. Amidst a string of mysterious disappearances in the sleepy coastal town, Frank realizes that Eleanor's extraordinary tales are much more than dark fantasy.\n\nEnjoy !","torrent":{"xt":"urn:btih:bb46e4748fc4ce661d6ec9ff394bbc6f2c175369","amp;dn":"Byzantium+2012.1080p.BluRay.x264+.+NVEE","amp;tr":["udp%3A%2F%2Ftracker.openbittorrent.com%3A80","udp%3A%2F%2Fopen.demonii.com%3A1337","udp%3A%2F%2Ftracker.coppersurfer.tk%3A6969","udp%3A%2F%2Fexodus.desync.com%3A6969"],"infoHash":"bb46e4748fc4ce661d6ec9ff394bbc6f2c175369","infoHashBuffer":{"type":"Buffer","data":[187,70,228,116,143,196,206,102,29,110,201,255,57,75,188,111,44,23,83,105]},"announce":[],"urlList":[]}}